<?xml version="1.0" encoding="utf-8"?>
<!-- Generator: Adobe Illustrator 25.0.0, SVG Export Plug-In . SVG Version: 6.00 Build 0)  -->
<svg version="1.1" id="Layer_1" xmlns="http://www.w3.org/2000/svg" xmlns:xlink="http://www.w3.org/1999/xlink" x="0px" y="0px"
	 viewBox="0 0 800 106.4" style="enable-background:new 0 0 800 106.4;" xml:space="preserve">
<style type="text/css">
	.st0{fill:#FFFFFF;}
</style>
<g>
	<path class="st0" d="M377.4,22.3c-0.1-0.1-0.2-0.1-0.3-0.2c-0.2-0.1-0.3-0.3-0.5-0.4c0,0,0,0-0.1,0c-0.1,0-0.1,0-0.2-0.1l-0.4,0.1
		c0,0,0,0,0,0h0c-0.1,0-0.2,0.1-0.3,0.1c-0.2,0.1-0.4,0.1-0.6,0.2c-0.1,0-0.2,0.1-0.4,0.1c0,0-0.1,0.1-0.1,0.1l-0.7,0.8
		c0.4,0,0.4,0,0.4,0.2c0,0.2,0,0.2,0.1,0.2c0,0,0.2-0.1,0.4-0.2c0.3-0.2,0.8-0.5,1.4-0.6c0.4,0,0.8,0.1,1.2,0c0,0,0.1,0,0.1-0.1
		C377.6,22.5,377.5,22.4,377.4,22.3z M387.9,21c-0.2-0.2-0.5-0.2-0.8-0.4h-3.5c-0.2,0-0.3,0-0.4,0c-0.3,0-0.5,0-0.8,0
		c-0.2,0.1-0.4,0.1-0.6,0.2c-0.7,0.2-1.5,0.1-2.1,0.4c-0.3,0.1-0.3,0.5-0.2,0.5c0.1,0.1,0.5,0.1,1.8-0.2c0.9-0.2,0.9-0.2,2.6,0.3
		c-0.1,0.1-0.1,0.1-0.8,0.3c0.4,0.2,3.2,0.7,3.8,0.4c0,0,0,0-0.2-0.1c-0.1,0-0.1,0-1.3-0.9c1,0.1,1.3,0.2,1.8,0.5
		c0.1,0.1,0.2,0.1,0.2,0.1C387.7,22.1,388.2,21.2,387.9,21z M382.2,20.7c0.1,0,0.1,0,0.2,0c0,0,0,0,0,0
		C382.4,20.7,382.3,20.7,382.2,20.7z M413.6,73.3c0-0.2-0.3-0.4-0.3-0.6c0-0.1,0.1-0.3,0.1-0.5l-0.6-0.5c-0.2,0-0.5,0.1-0.8,0
		c-1.2-0.2-2-1-3.2-1.3c-1.8-0.4-3.6-0.6-5.3-1c-1-0.3-1.1-1.2-1.8-1.7c-1.1-0.5-1.9-1.4-3-1.9c-1.5-0.6-3.3-0.4-4.8-1.1
		c-1.2-0.5-1.9-1.4-3.2-1.9c-0.2-0.1-0.4-0.1-0.6-0.2c-6-0.7-10.8-1.2-11.3,2.4c-1.8-0.9-6.4,0.6-6-1.7c0.3-1.4-0.5-2.3-0.5-2.3
		c-1.4-0.5-2.8,0-4.2,0c0.5-1.2,0.5-1.2,0.1-1.7c0.6-1.1,0.6-1.1,0.8-2c-0.3-0.2-2.6-1.6-3.1,2.4c-0.8,0-1.3,0.8-2.2,0.4
		c-2.2-0.9-2.9-2.1-3.2-2.8c-0.3-0.8,0.6-1.4,0.5-2.1c0-0.5-0.9-0.7-0.6-1.2c0.3-0.7,2-2,2.4-2.2c0.7-0.4,3.5,0.1,3.5,0.1
		c0.1-0.1,0.2-0.1,0.2-0.2c-0.2-0.2-0.5-0.2-0.8-0.4c0-0.1,0.1-0.2,0.1-0.2c0.5-0.2,4.8-0.5,4.9-0.5c1.9,0.8,0.7,2.7,2.5,3.5
		c2.1-1.7-1.3-3.2-0.9-4.9c0.4-1.8,2.7-2.2,4-3.3c0,0,0,0,0,0c0-0.1-0.1-0.1-0.2-0.2c0-0.1,0-0.1,0-0.2c0.1,0,0.2,0,0.2-0.1
		c0-0.1,0-0.2,0-0.3c-0.1,0-0.2,0-0.3-0.1l0.4-3.2c0,0.5,0,1.9,0,1.9c0.2-0.1,0.2-0.1,0.4-2.2c0.2,0.2,0.4,0.4,0.5,0.7
		c0.4-0.5,0.3-1.1,0.9-1.6c0,0,2.5-1,2.7-1c0.2-1.6,0.2-1.6,1.5-2.5c0.2,0,0.2,0,3.8-1.6c0,0.1-0.1,0.1-0.1,0.2
		c0.2,0,0.5,0.1,0.7,0.1v0.2c-2.1,1.1-2.1,1.1-2.1,1.4c1.4,0,5.8-1.9,5-3.3c-0.6,0.3-0.6,0.8-1,1.2c-0.4-0.1-0.8-0.2-1.2-0.2
		c0.3-0.1,0.6-0.3,0.6-0.3c0,0,0,0,0,0c0,0,0,0,0,0c0,0,0,0-0.1,0c-0.5,0.1-0.9,0-1-0.1c-0.3-0.1-0.3-0.2-0.3-0.4c0-0.1,0-0.1,0-0.1
		c0,0,0,0,0,0c0,0-0.2,0.4,0,0.6c-0.5-0.2-0.6-0.4-0.9-0.9c-0.5-0.1-0.5-0.2-0.8-0.4c0.8-0.2,1.3-0.3,1.5-0.9
		c-0.4-0.3-0.4-0.3-5.8,2.2c3.8-2.9,3.8-2.9,7.6-3.8c0.9,0.5,4.8-1,5.4-1.8c-0.2-0.4-0.2-0.4,0.1-0.9c0,0-0.1-0.1-0.2-0.2
		c-0.3-0.1-0.6-0.1-0.9-0.1c-0.3,0-0.3,0-0.3,0c-0.2,0-0.8,0.1-1.8,0.6c0-0.1-0.1-0.1-0.1-0.2c0.3-0.3,0.5-0.4,1.6-0.7h0
		c0.1,0,0.1-0.1,0.2-0.1c0.1-0.1-0.8-0.7-2-0.5c-0.3,0-0.3,0-0.4,0c-0.1-0.1,0.1-0.3,0-0.5c-0.2-0.2-0.7-0.2-0.9-0.4
		c-0.1-0.1,0-0.2,0.1-0.4c0.3-0.3,0.3-0.3-0.3-1c-1.4-1.8-1.4-1.8-2.1-0.9c-0.1,0.2,0.2,0.3,0,0.5c-0.2,0.2-0.5,0-0.8,0.2
		c-0.4,0.5-0.4,0.5-0.5,0.5c-0.8,0.2-1.3-0.3-1.9-0.4c-0.1-0.1,0.1-1.2,0.5-1.4c-0.4-0.1-0.8,0-1.2,0c-0.1,0-0.1-0.1-0.3-0.2
		c-0.1-0.1-0.1-0.2-1.1-0.4c-0.2,0-0.2,0-0.4,0c-0.9,0.2-1.8,0-2.6,0.3c0.2,0.6-0.8,1.1-0.2,1.8c-0.1,0.3-0.6,0.4-0.7,0.7
		c0,0.4,0.5,0.6,0.5,1c0,0,0.1,1.6-1.1,1.8c-0.3,0-0.8,0.2-0.7,0.5c-0.1,0-0.1,0.1-0.3,0.2c-0.3,0.9,0.5,2-0.9,2.7
		c-0.4-0.5-1.2-0.6-1.8-0.9c0.3-0.7,0.2-1,0-1.3c0.1-0.1,0.2-0.1,0.3-0.2c0,0,0-0.1,0-0.2c-0.1,0-0.2,0-0.3,0
		c-0.6-0.4-1.2,0-1.8-0.2c-0.6-0.1-0.9-0.6-1.5-0.7c-0.1,0-0.2-0.1-0.3-0.1c-0.6-0.1-0.9,0.2-1.4,0.3c-0.2-0.1-0.2-0.1-0.4-1
		c-0.1-0.3-0.1-0.3-1.1-0.4c0-0.2,0-0.4,0.2-0.6l0.2-0.4c-0.4,0.3-0.8,0.7-1.2,1c0,0,0,0,0,0c-0.4,0.4-0.8,0.8-1.2,1.2c0,0,0,0,0,0
		c-0.4,0.5-0.9,0.9-1.3,1.4c-0.2,0.2-0.3,0.4-0.5,0.5c-0.2,0.3-0.5,0.6-0.7,0.9c-0.2,0.2-0.3,0.4-0.5,0.6c-0.2,0.3-0.4,0.6-0.6,0.9
		c-0.1,0.2-0.3,0.4-0.4,0.6c-0.2,0.3-0.4,0.7-0.6,1c-0.1,0.2-0.2,0.3-0.3,0.5c-0.3,0.5-0.5,1-0.8,1.6c-0.1,0.1-0.1,0.2-0.1,0.4
		c-0.2,0.4-0.4,0.8-0.5,1.3c-0.1,0.2-0.1,0.4-0.2,0.6c-0.1,0.3-0.2,0.7-0.3,1c-0.1,0.3-0.2,0.6-0.2,0.9c-0.1,0.3-0.2,0.6-0.2,1
		c0,0.2-0.1,0.4-0.1,0.6c-0.1,0.6-0.2,1.3-0.3,1.9c0,0.2-0.1,0.4-0.1,0.6c-0.1,0.8-0.1,1.6-0.1,2.4v11.9c0,0.4,0,0.9,0.1,1.3
		c0.1,0.1,0.3,0.1,0.4,0.2c0.3,0.1,0.6,0.2,0.9,0.3c0.9,0.2,1.9,0.3,2.9,0.5c1,0.2,2-0.2,2.9,0.2c2.2,0.9,2.2,0.9,3,1
		c0.1,0,0.3,0,0.4,0c3.4,0.4,4.9,3.5,8.6,3.5c1.7-2.1,2.7,0.4,3.1,1.6c0.1,0.4,0.1,0.4-0.8,1.9c0,0-0.9,2.8-0.5,3.4
		c0.1,0.1,0.1,0.2,0.2,0.3c1.2,1.4,6.3,5.1,6.4,5.2c1.2,0.8,2.9,1,4.2,1.7c1,0.5,1.8,1.6,2.1,3c0,0,0.4,1.2,1,2.8h12.5
		c0.3-0.6,0.5-1.2,0.6-1.6c0.1-0.5,0.2-0.7,0.2-0.8c0.4-0.7,1.5-1,1.9-1.2c1-0.3,1-1.2,1.7-1.7c0.3-0.2,0.6-0.2,0.8-0.2
		c0.4,0,0.5,0,0.5-0.3c0.1-0.6,0-1.3,0.1-1.9c0-0.4-0.3-0.7,0.1-1.1c0.4-0.4,0.5-0.5,0.2-0.8c-0.1,0-0.1-0.1-0.1-0.2
		C412.8,75.3,413.6,73.4,413.6,73.3C413.6,73.4,413.7,73.4,413.6,73.3z M357.1,60.4C357.1,60.4,357.1,60.4,357.1,60.4
		c0,0.3,0,0.5,0,0.8C357.1,61,357.1,60.7,357.1,60.4z M444.5,26.1c-0.7-1-0.5-1.1-0.2-1.3c0-0.2,0-0.3-0.9-0.8
		c-0.6-0.3-0.6-0.3-1.5-1.3c-0.1-0.2-0.1-0.4-0.1-0.6c0,0,0,0,0,0h0c-1.6-0.5-3.2-0.9-4.9-1.1c-0.1,0.5-0.2,0.5-0.8,0.8
		c-0.2,0.1-0.2,0.2-0.1,0.5c0,0,1.9,3.3,3.6,2.8c0.6-0.2,0.3-0.9,0.1-1.2c0.1,0.1,3.3,2.4,3.8,3.2c0.3,0.3,0.5,0.7,1,0.7
		C444.8,27.4,444.8,26.5,444.5,26.1z M443.2,22.6c0.5,0.8,0.7,0.9,1.5,1.5c1,0.7,2.4,0.6,3.4,1.2C446.5,24.2,444.9,23.3,443.2,22.6z
		 M459.6,46.3c0-0.7-0.1-1.5-0.1-2.2v0c-0.1-0.5-0.1-0.9-0.2-1.4v0c0-0.3-0.1-0.6-0.2-1c0,0,0,0,0,0c0,0,0,0,0,0
		c0-0.1,0-0.2-0.1-0.3c-0.1,0-0.3,0-0.4,0c0,0.1-0.1,0.3-0.2,0.4c-0.2,0-0.4-0.1-0.6-0.1c0,0.1,0.1,0.3,0.3,0.4
		c-0.3,0.2-0.8,0.1-1.2,0.2c0,0.1-0.1,0.3-0.1,0.5c0.1,0,0.2,0,0.3,0.1c0.1,0.8,0.4,2.4,1.8,3.3c0.1,0,0.2-0.1,0.2-0.2
		c0-0.1,0-0.2,0-0.2C459.4,46,459.5,46.2,459.6,46.3z M459.3,50.8c-2-0.1-1.9-2.3-4-2.4c-0.4,0.5-0.1,1.2-0.4,1.7
		c-0.1,0-0.2,0-0.3,0.1c-0.4-0.2-5.1-3.4-5.4-3.8c-0.1-0.1,0-0.4,0.1-0.5c0.3-0.3,0.3-0.3,0.1-2.2c-0.5-0.2-0.6-0.3-0.9-0.4
		c-0.4,0.2-0.4,0.2-2.1-0.1c-0.1,0.1-0.3,0.2-0.4,0.4c-2.2-0.6-4,1.2-6.2,0.6c-0.2,0-0.3,0-0.3,0c-0.6,0.1-0.8,0.1-1.5-0.5
		c-0.1-0.1-0.1-0.1-0.1-0.1c-0.1,0.1-0.2,0.2-0.3,0.2c-0.4,0.4-0.1,0.9-0.5,1.3c-0.5,0.5-1.5,0.5-1.9,1c-0.1,0.1-0.1,0.4-0.1,0.6
		c-0.2,2-0.2,2-0.9,2.3c-0.7,0.2-1.8,0.9-1.9,1c-0.4,0.5-3.3,4.3-3.3,4.3c-0.1,1,0.8,1.9,0.8,2.9c0,0.8-1.6,1.2-1.1,2.2
		c0.8,1.5,1.8,2.8,2.7,4.2c0.4,0.6,3.2,2.6,3.7,2.6c2.7-0.2,5.2-0.9,8-0.7c0.1,0,0.2,0.1,0.2,0.1c0.5,0.3,0.1,0.9,0.6,1.2
		c0.5,0.3,1.1,0.1,1.6,0.3c0.3,0.8,0.3,0.8-0.1,1.6c-0.1,0.2-0.2,0.4-0.3,0.6h9.2l2.2,2.2c0.3-0.5,0.5-1,0.8-1.5
		c0.1-0.1,0.1-0.3,0.2-0.4c0.2-0.4,0.3-0.8,0.5-1.3c0.1-0.2,0.2-0.4,0.2-0.6c0.1-0.3,0.2-0.7,0.3-1c0.1-0.3,0.2-0.6,0.2-0.9
		c0.1-0.3,0.2-0.6,0.2-1c0-0.2,0.1-0.4,0.1-0.6c0.1-0.6,0.2-1.3,0.3-1.9c0-0.2,0-0.4,0.1-0.6c0.1-0.8,0.1-1.6,0.1-2.4v-8.5
		C459.5,50.7,459.4,50.7,459.3,50.8z M382.6,59.7c0.2-0.6-3.8-0.9-4.1-0.8c-0.1,0-0.1,0-0.1,0c0,0,0,0,0,0.1
		c0.6,0.4,0.4,0.9,0.4,0.9c-0.1,0.1-0.4,0-0.8,0c-0.8-0.1-0.9-0.1-0.9-0.1c0,0,0,0,0,0c0.5,0.2,1.1,0.2,1.6,0.4
		c0.2,0.1,0.1,0.4,0.4,0.4c0.6,0,0.5-0.5,1-0.6c0.1,0,0.1,0,0.3,0c0.8,0.1,2.3,0.1,2.3,0.1c0.1,0,0.1,0,0.1-0.1
		C382.7,60.1,382.5,59.9,382.6,59.7z M431.7,28c-0.1-0.2-0.2-0.3-0.3-0.4c-0.2-0.2-0.2-0.3-0.1-0.5c0.1-0.1,0.1-0.2,0.1-0.4
		c-0.1-0.2-0.2-0.3-0.4-0.4c-0.1,0-0.2-0.1-0.2-0.1c-0.2-0.1-0.4-0.1-0.7-0.2c-0.1,0-0.2-0.1-0.2-0.1c0,0,0,0,0,0
		c-0.1,0-1.4,0.3-0.6,0.6c0.1,0,0.1,0,0.2,0c0,0-0.1,0-0.1,0.1c-0.6,0.2-0.7,0.3-0.8,0.4c-0.1,0.1-0.2,0.2-0.2,0.4
		c0,0.1,0.1,0.2,0.3,0.2c0.2,0.1,0.4,0,0.5,0.1c0,0,0,0,0,0c-0.2,0.3-0.4,1-0.4,1c-0.1,0.2,0,0.4,0.1,0.5c0.2,0.2,1.1,0.1,1.8-0.2
		c0.2-0.1,0.3-0.2,0.5-0.2c0.2-0.1,0.5,0,0.6-0.2C431.9,28.5,431.9,28.3,431.7,28z M443.7,40.5c-0.3,0-0.9,0-0.7,0.2
		c0.1,0.1,0.6,0.2,0.8,0.2c0.1,0,0.1,0,0.1,0c0,0,0.3-0.2,0.3-0.2C444.2,40.6,444,40.5,443.7,40.5z M385,60.7
		c-0.7-0.2-0.9-0.2-1-0.1c-0.3,0.2,0.1,0.5,0.5,0.5c0.3,0,1.2-0.1,1.2-0.1C385.7,60.9,385.7,60.8,385,60.7z M374.1,59.4
		c-0.3,0.1-0.1,0.5,0.1,0.5c0.1,0,1,0.2,1-0.1C375.2,59.6,374.6,59.3,374.1,59.4z M375,56c-0.3-0.1-1.1-0.6-2.7-0.3
		c-0.9,0.2-1.5,0.7-1.5,0.7c0.1,0.1,0.8,0,1.4-0.2c0.8-0.3,1.3-0.2,1.4,0c0,0.1-0.1,0.1-0.4,0c0,0,0,0,0,0c0,0.3,0.7,0.4,1.1,0.5
		c0.8,0.1,0.8,0.3,1,0.6c0.1,0.2,0.1,0.3,0.3,0.5c0.1,0.1,0.2,0.2,0.2,0.2c0,0.2-0.3,0.2-0.4,0.3c0.4,0.3,2.5,0.5,2.6,0.3
		C377.8,58.5,375,56.1,375,56z M458.1,47.1l-0.5-0.5c-0.1-0.1-0.2-0.1-0.2-0.1c-0.2,0-0.3,0-0.5-0.1c-0.3-0.1-0.3-0.1-0.3-0.1
		c-0.1,0-0.2,0.1-0.1,0.2C456.6,46.7,457.8,47.2,458.1,47.1C458.1,47.1,458.1,47.1,458.1,47.1C458.1,47.1,458.1,47.1,458.1,47.1z
		 M448.4,41.1c0-0.2-0.1-0.3-0.1-0.5c0-0.2,0-0.3-0.1-0.5c-0.1-0.3-0.2-0.3-0.3-0.3c-0.2,0-0.7,0.1-0.9,0.4c-0.1,0.1-0.1,0.7,0,0.8
		c0.1,0.1,0.3,0.1,0.4,0.2c0,0.2,0,0.3,0,0.4c0,0.1,0.2,0.1,0.2,0.1c0.1,0,0.8-0.1,0.8-0.5C448.4,41.2,448.4,41.1,448.4,41.1z
		 M447.5,38.4c0,0-0.2-0.5-0.2-0.6c0,0,0,0,0,0c0,0,0,0,0,0c0,0,0,0,0,0c-0.1,0.2,0,0.3,0,0.5c0,0.2-0.1,0.2-0.2,0.3
		c-0.1,0-0.1,0.1-0.1,0.2c0,0,0.1,0.1,0.1,0.1c0,0,0.5,0.4,0.5,0.5C447.7,39.4,447.6,38.8,447.5,38.4z M386.8,32.1
		c-0.4,0.1,0.4,0.4,0.6,0.5c1,0.4,1.4,0,1.4,0C388.9,32.3,387.2,32.1,386.8,32.1z M376.4,23.2c0,0-0.9,0.1-1.2,0.3
		c-0.2,0.1-0.2,0.4-0.1,0.4c0.2,0.1,1.3-0.4,1.5-0.6C376.6,23.3,376.6,23.2,376.4,23.2z M397.5,20.7c0.8,0.9,1.8,1.7,2.4,1.9
		c3.4,0.5,3.5,0.4,3.7,0.2c0.2-0.2,0.6-1.4,0.8-2.1H397.5z M395.3,32c-0.3-0.2-0.3-0.2-1.2-0.1c-0.3,0-0.3,0-0.4-0.2
		c-0.1-0.3-0.2-0.4-0.4-0.5c-0.1,0-0.1-0.1,0-0.1c0.1-0.1,0.2-0.2,0.3-0.3c0.4-0.4,0.6-0.6,0.5-0.8c0,0,0,0-0.1,0
		c-0.2,0-0.8,0.4-1.2,0.8c-0.5,0.5-0.9,1.1-1.4,1.6c-0.3,0.3-0.7,0.5-0.9,0.7c-0.1,0.1,0,0.1,0,0.1c0.1,0,0.1,0,1.7,0.1
		c0.9,0.1,1.6,0.1,2.3,0.3c0.1,0,0.2,0,0.3,0c0.3,0,0.5-0.2,0.8,0c0.1,0.1,0.2,0.3,0.2,0.4c0,0.1,0.1,0.1,0.1,0.1
		c0.2,0,0.6-0.4,0.6-0.7C396.3,33.1,395.8,32.4,395.3,32z M438.4,30c-0.2-0.3,0.2-0.6,0.1-1c-0.3-0.6-0.6-0.6-0.9-0.6
		c-0.6,0-1-0.6-1-0.6c0,0,0,0,0,0c0,0,0,0,0.5,0.1c0.2,0.1,0.5,0.1,0.5,0c0,0,0,0,0,0c0,0-0.1-0.1-0.2-0.2c-0.7-0.4-1.6-0.6-2.2-1.1
		c-0.3-0.2-0.5-0.5-0.9-0.7c-0.6-0.3-1.2-0.4-1.5-0.4c0.4-0.3,0.9-1.5-0.1-1.5c-0.2,0-0.4,0-0.5,0c-0.6,0.1-0.8,0.1-0.8,0
		c0-0.2,0.5-0.7,0.1-0.7c0,0-1.2,0-1.4,0.3c0,0,0,0.1,0,0.1c0.1,0.3,0.3,0.5,0.4,0.8c0.1,0.2-0.2,0.5-0.1,0.7c0.1,0,0.3,0,0.7-0.2
		c0.2-0.1,0.3-0.2,0.4-0.1c0.4,0.2-0.1,0.5,0.1,0.8c0.3,0.5,0.7,0.6,1.1,0.7c0.7,0.2,0.8,0.2,1,0.2c0,0.1,0,0.2,0,0.3
		c0.2,0.3,0.6,0.4,0.7,0.7c0.1,0.3-0.4,0.1-0.7,0c-0.1,0-0.1,0-0.2,0h0c-0.2-0.1-0.3-0.1-0.4-0.1c0,0,0,0,0,0.1
		c0.2,0.4,0.7,0.5,0.8,0.9c0.1,0.2-0.2,0.3-0.6,0.4c-0.1,0-0.2,0.1-0.2,0.2c0,0,0.2,0.2,1.1,0.2c0.4,0,1.2,0,1.2,0.2
		c0,0.2-0.2,0.2-0.4,0.2c-0.3,0-0.3,0.1-0.4,0.1c-0.2,0.1-0.2,0.3-0.4,0.5c-0.2,0.2-0.5,0.3-0.7,0.5c0,0,0,0,0,0.1
		c0.1,0,0.1,0,1.8-0.2c0.9-0.1,1.7,0,2.6-0.1h0l1.5-0.4c0,0,0,0,0,0C439.1,29.9,438.7,30.1,438.4,30z M378,23.4c0,0-0.5,0.1-0.6,0.2
		c-0.2,0.2-0.1,0.4-0.1,0.4c0.2,0.1,0.8-0.4,0.8-0.5C378.2,23.4,378.1,23.4,378,23.4z M626.9,13.9C617.7,4.6,606.6,0,593.6,0h-49.4
		c-13,0-24.1,4.6-33.4,13.9c-9.3,9.3-13.9,20.4-13.9,33.4v11.9c0,13,4.6,24.1,13.9,33.4c9.3,9.3,20.4,13.9,33.4,13.9h49.4
		c13,0,24.1-4.6,33.4-13.9c9.3-9.3,13.9-20.4,13.9-33.4V47.3C640.9,34.3,636.2,23.2,626.9,13.9z M629,59.1c0,9.7-3.5,18.1-10.4,25
		c-6.9,7-15.3,10.4-25,10.4h-49.4c-9.7,0-18.1-3.5-25-10.4c-6.9-6.9-10.4-15.3-10.4-25V47.3c0-9.7,3.5-18.1,10.4-25
		s15.3-10.4,25-10.4h49.4c9.7,0,18.1,3.5,25,10.4s10.4,15.3,10.4,25V59.1z M459.3,50.8c-2-0.1-1.9-2.3-4-2.4
		c-0.4,0.5-0.1,1.2-0.4,1.7c-0.1,0-0.2,0-0.3,0.1c-0.4-0.2-5.1-3.4-5.4-3.8c-0.1-0.1,0-0.4,0.1-0.5c0.3-0.3,0.3-0.3,0.1-2.2
		c-0.5-0.2-0.6-0.3-0.9-0.4c-0.4,0.2-0.4,0.2-2.1-0.1c-0.1,0.1-0.3,0.2-0.4,0.4c-2.2-0.6-4,1.2-6.2,0.6c-0.2,0-0.3,0-0.3,0
		c-0.6,0.1-0.8,0.1-1.5-0.5c-0.1-0.1-0.1-0.1-0.1-0.1c-0.1,0.1-0.2,0.2-0.3,0.2c-0.4,0.4-0.1,0.9-0.5,1.3c-0.5,0.5-1.5,0.5-1.9,1
		c-0.1,0.1-0.1,0.4-0.1,0.6c-0.2,2-0.2,2-0.9,2.3c-0.7,0.2-1.8,0.9-1.9,1c-0.4,0.5-3.3,4.3-3.3,4.3c-0.1,1,0.8,1.9,0.8,2.9
		c0,0.8-1.6,1.2-1.1,2.2c0.8,1.5,1.8,2.8,2.7,4.2c0.4,0.6,3.2,2.6,3.7,2.6c2.7-0.2,5.2-0.9,8-0.7c0.1,0,0.2,0.1,0.2,0.1
		c0.5,0.3,0.1,0.9,0.6,1.2c0.5,0.3,1.1,0.1,1.6,0.3c0.3,0.8,0.3,0.8-0.1,1.6c-0.1,0.2-0.2,0.4-0.3,0.6h9.2l2.2,2.2
		c0.3-0.5,0.5-1,0.8-1.5c0.1-0.1,0.1-0.3,0.2-0.4c0.2-0.4,0.3-0.8,0.5-1.3c0.1-0.2,0.2-0.4,0.2-0.6c0.1-0.3,0.2-0.7,0.3-1
		c0.1-0.3,0.2-0.6,0.2-0.9c0.1-0.3,0.2-0.6,0.2-1c0-0.2,0.1-0.4,0.1-0.6c0.1-0.6,0.2-1.3,0.3-1.9c0-0.2,0-0.4,0.1-0.6
		c0.1-0.8,0.1-1.6,0.1-2.4v-8.5C459.5,50.7,459.4,50.7,459.3,50.8z M459,46.2c0.1,0,0.2-0.1,0.2-0.2c0-0.1,0-0.2,0-0.2
		c0.2,0.1,0.3,0.3,0.5,0.4c0-0.7-0.1-1.5-0.1-2.2v0c-0.1-0.5-0.1-0.9-0.2-1.4v0c0-0.3-0.1-0.6-0.2-1c0,0,0,0,0,0c0,0,0,0,0,0
		c0-0.1,0-0.2-0.1-0.3c-0.1,0-0.3,0-0.4,0c0,0.1-0.1,0.3-0.2,0.4c-0.2,0-0.4-0.1-0.6-0.1c0,0.1,0.1,0.3,0.3,0.4
		c-0.3,0.2-0.8,0.1-1.2,0.2c0,0.1-0.1,0.3-0.1,0.5c0.1,0,0.2,0,0.3,0.1C457.3,43.8,457.6,45.4,459,46.2z M458.1,47.1
		C458.1,47.1,458.1,47.1,458.1,47.1C458.1,47.1,458.1,47.1,458.1,47.1l-0.5-0.5c-0.1-0.1-0.2-0.1-0.2-0.1c-0.2,0-0.3,0-0.5-0.1
		c-0.3-0.1-0.3-0.1-0.3-0.1c-0.1,0-0.2,0.1-0.1,0.2C456.6,46.7,457.8,47.2,458.1,47.1z M447.1,40.2c-0.1,0.1-0.1,0.7,0,0.8
		c0.1,0.1,0.3,0.1,0.4,0.2c0,0.2,0,0.3,0,0.4c0,0.1,0.2,0.1,0.2,0.1c0.1,0,0.8-0.1,0.8-0.5c0,0,0-0.1,0-0.1c0-0.2-0.1-0.3-0.1-0.5
		c0-0.2,0-0.3-0.1-0.5c-0.1-0.3-0.2-0.3-0.3-0.3C447.7,39.8,447.2,39.9,447.1,40.2z M447.1,38.7c-0.1,0-0.1,0.1-0.1,0.2
		c0,0,0.1,0.1,0.1,0.1c0,0,0.5,0.4,0.5,0.5c0.1,0,0-0.7-0.1-1c0,0-0.2-0.5-0.2-0.6c0,0,0,0,0,0c0,0,0,0,0,0c0,0,0,0,0,0
		c-0.1,0.2,0,0.3,0,0.5C447.2,38.6,447.1,38.7,447.1,38.7z M444.7,24.1c1,0.7,2.4,0.6,3.4,1.2c-1.6-1.1-3.2-2-4.9-2.7
		C443.7,23.4,443.9,23.5,444.7,24.1z M439.7,25c0.6-0.2,0.3-0.9,0.1-1.2c0.1,0.1,3.3,2.4,3.8,3.2c0.3,0.3,0.5,0.7,1,0.7
		c0.1-0.1,0.1-1-0.2-1.5c-0.7-1-0.5-1.1-0.2-1.3c0-0.2,0-0.3-0.9-0.8c-0.6-0.3-0.6-0.3-1.5-1.3c-0.1-0.2-0.1-0.4-0.1-0.6
		c0,0,0,0,0,0h0c-1.6-0.5-3.2-0.9-4.9-1.1c-0.1,0.5-0.2,0.5-0.8,0.8c-0.2,0.1-0.2,0.2-0.1,0.5C436.1,22.2,437.9,25.5,439.7,25z
		 M443,40.7c0.1,0.1,0.6,0.2,0.8,0.2c0.1,0,0.1,0,0.1,0c0,0,0.3-0.2,0.3-0.2c0-0.1-0.2-0.1-0.5-0.2C443.4,40.5,442.8,40.5,443,40.7z
		 M430.4,24.7c0.1,0.2-0.2,0.5-0.1,0.7c0.1,0,0.3,0,0.7-0.2c0.2-0.1,0.3-0.2,0.4-0.1c0.4,0.2-0.1,0.5,0.1,0.8
		c0.3,0.5,0.7,0.6,1.1,0.7c0.7,0.2,0.8,0.2,1,0.2c0,0.1,0,0.2,0,0.3c0.2,0.3,0.6,0.4,0.7,0.7c0.1,0.3-0.4,0.1-0.7,0
		c-0.1,0-0.1,0-0.2,0h0c-0.2-0.1-0.3-0.1-0.4-0.1c0,0,0,0,0,0.1c0.2,0.4,0.7,0.5,0.8,0.9c0.1,0.2-0.2,0.3-0.6,0.4
		c-0.1,0-0.2,0.1-0.2,0.2c0,0,0.2,0.2,1.1,0.2c0.4,0,1.2,0,1.2,0.2c0,0.2-0.2,0.2-0.4,0.2c-0.3,0-0.3,0.1-0.4,0.1
		c-0.2,0.1-0.2,0.3-0.4,0.5c-0.2,0.2-0.5,0.3-0.7,0.5c0,0,0,0,0,0.1c0.1,0,0.1,0,1.8-0.2c0.9-0.1,1.7,0,2.6-0.1h0l1.5-0.4
		c0,0,0,0,0,0c-0.3-0.2-0.7,0-1-0.1c-0.2-0.3,0.2-0.6,0.1-1c-0.3-0.6-0.6-0.6-0.9-0.6c-0.6,0-1-0.6-1-0.6c0,0,0,0,0,0
		c0,0,0,0,0.5,0.1c0.2,0.1,0.5,0.1,0.5,0c0,0,0,0,0,0c0,0-0.1-0.1-0.2-0.2c-0.7-0.4-1.6-0.6-2.2-1.1c-0.3-0.2-0.5-0.5-0.9-0.7
		c-0.6-0.3-1.2-0.4-1.5-0.4c0.4-0.3,0.9-1.5-0.1-1.5c-0.2,0-0.4,0-0.5,0c-0.6,0.1-0.8,0.1-0.8,0c0-0.2,0.5-0.7,0.1-0.7
		c0,0-1.2,0-1.4,0.3c0,0,0,0.1,0,0.1C430.1,24.1,430.4,24.4,430.4,24.7z M429.3,27.8C429.3,27.8,429.2,27.8,429.3,27.8
		c-0.2,0.4-0.4,1-0.4,1c-0.1,0.2,0,0.4,0.1,0.5c0.2,0.2,1.1,0.1,1.8-0.2c0.2-0.1,0.3-0.2,0.5-0.2c0.2-0.1,0.5,0,0.6-0.2
		c0.1-0.1,0.1-0.3-0.1-0.7c-0.1-0.2-0.2-0.3-0.3-0.4c-0.2-0.2-0.2-0.3-0.1-0.5c0.1-0.1,0.1-0.2,0.1-0.4c-0.1-0.2-0.2-0.3-0.4-0.4
		c-0.1,0-0.2-0.1-0.2-0.1c-0.2-0.1-0.4-0.1-0.7-0.2c-0.1,0-0.2-0.1-0.2-0.1c0,0,0,0,0,0c-0.1,0-1.4,0.3-0.6,0.6c0.1,0,0.1,0,0.2,0
		c0,0-0.1,0-0.1,0.1c-0.6,0.2-0.7,0.3-0.8,0.4c-0.1,0.1-0.2,0.2-0.2,0.4c0,0.1,0.1,0.2,0.3,0.2C428.9,27.8,429.1,27.7,429.3,27.8z
		 M413.3,72.8c0-0.1,0.1-0.3,0.1-0.5l-0.6-0.5c-0.2,0-0.5,0.1-0.8,0c-1.2-0.2-2-1-3.2-1.3c-1.8-0.4-3.6-0.6-5.3-1
		c-1-0.3-1.1-1.2-1.8-1.7c-1.1-0.5-1.9-1.4-3-1.9c-1.5-0.6-3.3-0.4-4.8-1.1c-1.2-0.5-1.9-1.4-3.2-1.9c-0.2-0.1-0.4-0.1-0.6-0.2
		c-6-0.7-10.8-1.2-11.3,2.4c-1.8-0.9-6.4,0.6-6-1.7c0.3-1.4-0.5-2.3-0.5-2.3c-1.4-0.5-2.8,0-4.2,0c0.5-1.2,0.5-1.2,0.1-1.7
		c0.6-1.1,0.6-1.1,0.8-2c-0.3-0.2-2.6-1.6-3.1,2.4c-0.8,0-1.3,0.8-2.2,0.4c-2.2-0.9-2.9-2.1-3.2-2.8c-0.3-0.8,0.6-1.4,0.5-2.1
		c0-0.5-0.9-0.7-0.6-1.2c0.3-0.7,2-2,2.4-2.2c0.7-0.4,3.5,0.1,3.5,0.1c0.1-0.1,0.2-0.1,0.2-0.2c-0.2-0.2-0.5-0.2-0.8-0.4
		c0-0.1,0.1-0.2,0.1-0.2c0.5-0.2,4.8-0.5,4.9-0.5c1.9,0.8,0.7,2.7,2.5,3.5c2.1-1.7-1.3-3.2-0.9-4.9c0.4-1.8,2.7-2.2,4-3.3
		c0,0,0,0,0,0c0-0.1-0.1-0.1-0.2-0.2c0-0.1,0-0.1,0-0.2c0.1,0,0.2,0,0.2-0.1c0-0.1,0-0.2,0-0.3c-0.1,0-0.2,0-0.3-0.1l0.4-3.2
		c0,0.5,0,1.9,0,1.9c0.2-0.1,0.2-0.1,0.4-2.2c0.2,0.2,0.4,0.4,0.5,0.7c0.4-0.5,0.3-1.1,0.9-1.6c0,0,2.5-1,2.7-1
		c0.2-1.6,0.2-1.6,1.5-2.5c0.2,0,0.2,0,3.8-1.6c0,0.1-0.1,0.1-0.1,0.2c0.2,0,0.5,0.1,0.7,0.1v0.2c-2.1,1.1-2.1,1.1-2.1,1.4
		c1.4,0,5.8-1.9,5-3.3c-0.6,0.3-0.6,0.8-1,1.2c-0.4-0.1-0.8-0.2-1.2-0.2c0.3-0.1,0.6-0.3,0.6-0.3c0,0,0,0,0,0c0,0,0,0,0,0
		c0,0,0,0-0.1,0c-0.5,0.1-0.9,0-1-0.1c-0.3-0.1-0.3-0.2-0.3-0.4c0-0.1,0-0.1,0-0.1c0,0,0,0,0,0c0,0-0.2,0.4,0,0.6
		c-0.5-0.2-0.6-0.4-0.9-0.9c-0.5-0.1-0.5-0.2-0.8-0.4c0.8-0.2,1.3-0.3,1.5-0.9c-0.4-0.3-0.4-0.3-5.8,2.2c3.8-2.9,3.8-2.9,7.6-3.8
		c0.9,0.5,4.8-1,5.4-1.8c-0.2-0.4-0.2-0.4,0.1-0.9c0,0-0.1-0.1-0.2-0.2c-0.3-0.1-0.6-0.1-0.9-0.1c-0.3,0-0.3,0-0.3,0
		c-0.2,0-0.8,0.1-1.8,0.6c0-0.1-0.1-0.1-0.1-0.2c0.3-0.3,0.5-0.4,1.6-0.7h0c0.1,0,0.1-0.1,0.2-0.1c0.1-0.1-0.8-0.7-2-0.5
		c-0.3,0-0.3,0-0.4,0c-0.1-0.1,0.1-0.3,0-0.5c-0.2-0.2-0.7-0.2-0.9-0.4c-0.1-0.1,0-0.2,0.1-0.4c0.3-0.3,0.3-0.3-0.3-1
		c-1.4-1.8-1.4-1.8-2.1-0.9c-0.1,0.2,0.2,0.3,0,0.5c-0.2,0.2-0.5,0-0.8,0.2c-0.4,0.5-0.4,0.5-0.5,0.5c-0.8,0.2-1.3-0.3-1.9-0.4
		c-0.1-0.1,0.1-1.2,0.5-1.4c-0.4-0.1-0.8,0-1.2,0c-0.1,0-0.1-0.1-0.3-0.2c-0.1-0.1-0.1-0.2-1.1-0.4c-0.2,0-0.2,0-0.4,0
		c-0.9,0.2-1.8,0-2.6,0.3c0.2,0.6-0.8,1.1-0.2,1.8c-0.1,0.3-0.6,0.4-0.7,0.7c0,0.4,0.5,0.6,0.5,1c0,0,0.1,1.6-1.1,1.8
		c-0.3,0-0.8,0.2-0.7,0.5c-0.1,0-0.1,0.1-0.3,0.2c-0.3,0.9,0.5,2-0.9,2.7c-0.4-0.5-1.2-0.6-1.8-0.9c0.3-0.7,0.2-1,0-1.3
		c0.1-0.1,0.2-0.1,0.3-0.2c0,0,0-0.1,0-0.2c-0.1,0-0.2,0-0.3,0c-0.6-0.4-1.2,0-1.8-0.2c-0.6-0.1-0.9-0.6-1.5-0.7
		c-0.1,0-0.2-0.1-0.3-0.1c-0.6-0.1-0.9,0.2-1.4,0.3c-0.2-0.1-0.2-0.1-0.4-1c-0.1-0.3-0.1-0.3-1.1-0.4c0-0.2,0-0.4,0.2-0.6l0.2-0.4
		c-0.4,0.3-0.8,0.7-1.2,1c0,0,0,0,0,0c-0.4,0.4-0.8,0.8-1.2,1.2c0,0,0,0,0,0c-0.4,0.5-0.9,0.9-1.3,1.4c-0.2,0.2-0.3,0.4-0.5,0.5
		c-0.2,0.3-0.5,0.6-0.7,0.9c-0.2,0.2-0.3,0.4-0.5,0.6c-0.2,0.3-0.4,0.6-0.6,0.9c-0.1,0.2-0.3,0.4-0.4,0.6c-0.2,0.3-0.4,0.7-0.6,1
		c-0.1,0.2-0.2,0.3-0.3,0.5c-0.3,0.5-0.5,1-0.8,1.6c-0.1,0.1-0.1,0.2-0.1,0.4c-0.2,0.4-0.4,0.8-0.5,1.3c-0.1,0.2-0.1,0.4-0.2,0.6
		c-0.1,0.3-0.2,0.7-0.3,1c-0.1,0.3-0.2,0.6-0.2,0.9c-0.1,0.3-0.2,0.6-0.2,1c0,0.2-0.1,0.4-0.1,0.6c-0.1,0.6-0.2,1.3-0.3,1.9
		c0,0.2-0.1,0.4-0.1,0.6c-0.1,0.8-0.1,1.6-0.1,2.4v11.9c0,0.4,0,0.9,0.1,1.3c0.1,0.1,0.3,0.1,0.4,0.2c0.3,0.1,0.6,0.2,0.9,0.3
		c0.9,0.2,1.9,0.3,2.9,0.5c1,0.2,2-0.2,2.9,0.2c2.2,0.9,2.2,0.9,3,1c0.1,0,0.3,0,0.4,0c3.4,0.4,4.9,3.5,8.6,3.5
		c1.7-2.1,2.7,0.4,3.1,1.6c0.1,0.4,0.1,0.4-0.8,1.9c0,0-0.9,2.8-0.5,3.4c0.1,0.1,0.1,0.2,0.2,0.3c1.2,1.4,6.3,5.1,6.4,5.2
		c1.2,0.8,2.9,1,4.2,1.7c1,0.5,1.8,1.6,2.1,3c0,0,0.4,1.2,1,2.8h12.5c0.3-0.6,0.5-1.2,0.6-1.6c0.1-0.5,0.2-0.7,0.2-0.8
		c0.4-0.7,1.5-1,1.9-1.2c1-0.3,1-1.2,1.7-1.7c0.3-0.2,0.6-0.2,0.8-0.2c0.4,0,0.5,0,0.5-0.3c0.1-0.6,0-1.3,0.1-1.9
		c0-0.4-0.3-0.7,0.1-1.1c0.4-0.4,0.5-0.5,0.2-0.8c-0.1,0-0.1-0.1-0.1-0.2c2.4-0.6,3.2-2.6,3.2-2.6c0,0,0,0,0-0.1
		C413.6,73.1,413.4,73,413.3,72.8z M399.9,22.6c3.4,0.5,3.5,0.4,3.7,0.2c0.2-0.2,0.6-1.4,0.8-2.1h-6.9
		C398.3,21.5,399.2,22.4,399.9,22.6z M391.3,32.5c-0.3,0.3-0.7,0.5-0.9,0.7c-0.1,0.1,0,0.1,0,0.1c0.1,0,0.1,0,1.7,0.1
		c0.9,0.1,1.6,0.1,2.3,0.3c0.1,0,0.2,0,0.3,0c0.3,0,0.5-0.2,0.8,0c0.1,0.1,0.2,0.3,0.2,0.4c0,0.1,0.1,0.1,0.1,0.1
		c0.2,0,0.6-0.4,0.6-0.7c0.1-0.5-0.5-1.3-1-1.7c-0.3-0.2-0.3-0.2-1.2-0.1c-0.3,0-0.3,0-0.4-0.2c-0.1-0.3-0.2-0.4-0.4-0.5
		c-0.1,0-0.1-0.1,0-0.1c0.1-0.1,0.2-0.2,0.3-0.3c0.4-0.4,0.6-0.6,0.5-0.8c0,0,0,0-0.1,0c-0.2,0-0.8,0.4-1.2,0.8
		C392.2,31.4,391.9,32,391.3,32.5z M386.8,32.1c-0.4,0.1,0.4,0.4,0.6,0.5c1,0.4,1.4,0,1.4,0C388.9,32.3,387.2,32.1,386.8,32.1z
		 M382.2,20.7c0.1,0,0.1,0,0.2,0c0,0,0,0,0,0C382.4,20.7,382.3,20.7,382.2,20.7z M381.2,21.6c0.9-0.2,0.9-0.2,2.6,0.3
		c-0.1,0.1-0.1,0.1-0.8,0.3c0.4,0.2,3.2,0.7,3.8,0.4c0,0,0,0-0.2-0.1c-0.1,0-0.1,0-1.3-0.9c1,0.1,1.3,0.2,1.8,0.5
		c0.1,0.1,0.2,0.1,0.2,0.1c0.3-0.1,0.8-1,0.6-1.2c-0.2-0.2-0.5-0.2-0.8-0.4h-3.5c-0.2,0-0.3,0-0.4,0c-0.3,0-0.5,0-0.8,0
		c-0.2,0.1-0.4,0.1-0.6,0.2c-0.7,0.2-1.5,0.1-2.1,0.4c-0.3,0.1-0.3,0.5-0.2,0.5C379.6,21.9,380,22,381.2,21.6z M384,60.5
		c-0.3,0.2,0.1,0.5,0.5,0.5c0.3,0,1.2-0.1,1.2-0.1c0,0,0-0.1-0.7-0.3C384.3,60.5,384.1,60.5,384,60.5z M378.7,60.3
		c0.2,0.1,0.1,0.4,0.4,0.4c0.6,0,0.5-0.5,1-0.6c0.1,0,0.1,0,0.3,0c0.8,0.1,2.3,0.1,2.3,0.1c0.1,0,0.1,0,0.1-0.1
		c0-0.2-0.2-0.3-0.1-0.5c0.2-0.6-3.8-0.9-4.1-0.8c-0.1,0-0.1,0-0.1,0c0,0,0,0,0,0.1c0.6,0.4,0.4,0.9,0.4,0.9c-0.1,0.1-0.4,0-0.8,0
		c-0.8-0.1-0.9-0.1-0.9-0.1c0,0,0,0,0,0C377.6,60.1,378.2,60.1,378.7,60.3z M377.4,24c0.2,0.1,0.8-0.4,0.8-0.5
		c0.1-0.1-0.1-0.1-0.2-0.1c0,0-0.5,0.1-0.6,0.2C377.2,23.8,377.3,24,377.4,24z M374.4,23.2c0,0.2,0,0.2,0.1,0.2c0,0,0.2-0.1,0.4-0.2
		c0.3-0.2,0.8-0.5,1.4-0.6c0.4,0,0.8,0.1,1.2,0c0,0,0.1,0,0.1-0.1c0.1-0.1,0-0.2-0.1-0.3c-0.1-0.1-0.2-0.1-0.3-0.2
		c-0.2-0.1-0.3-0.3-0.5-0.4c0,0,0,0-0.1,0c-0.1,0-0.1,0-0.2-0.1l-0.4,0.1c0,0,0,0,0,0h0c-0.1,0-0.2,0.1-0.3,0.1
		c-0.2,0.1-0.4,0.1-0.6,0.2c-0.1,0-0.2,0.1-0.4,0.1c0,0-0.1,0.1-0.1,0.1l-0.7,0.8C374.3,23.1,374.3,23.1,374.4,23.2z M375.2,58.3
		c0.4,0.3,2.5,0.5,2.6,0.3c0-0.1-2.8-2.5-2.8-2.5c-0.3-0.1-1.1-0.6-2.7-0.3c-0.9,0.2-1.5,0.7-1.5,0.7c0.1,0.1,0.8,0,1.4-0.2
		c0.8-0.3,1.3-0.2,1.4,0c0,0.1-0.1,0.1-0.4,0c0,0,0,0,0,0c0,0.3,0.7,0.4,1.1,0.5c0.8,0.1,0.8,0.3,1,0.6c0.1,0.2,0.1,0.3,0.3,0.5
		c0.1,0.1,0.2,0.2,0.2,0.2C375.6,58.2,375.4,58.2,375.2,58.3z M376.4,23.2c0,0-0.9,0.1-1.2,0.3c-0.2,0.1-0.2,0.4-0.1,0.4
		c0.2,0.1,1.3-0.4,1.5-0.6C376.6,23.3,376.6,23.2,376.4,23.2z M374.1,59.4c-0.3,0.1-0.1,0.5,0.1,0.5c0.1,0,1,0.2,1-0.1
		C375.2,59.6,374.6,59.3,374.1,59.4z M357.1,61.2c0-0.3,0-0.5,0-0.8c0,0,0,0,0,0C357.1,60.7,357.1,61,357.1,61.2z M480.3,47.3
		c0-13-4.6-24.1-13.9-33.4C457.1,4.6,446,0,433.1,0h-49.4c-13,0-24.1,4.6-33.4,13.9c-9.3,9.3-13.9,20.4-13.9,33.4v11.9
		c0,13,4.6,24.1,13.9,33.4c9.3,9.3,20.4,13.9,33.4,13.9h49.4c8.6,0,16.6-2.2,23.9-6.5l6.5,6.5h16.9l-13.8-13.8
		c9.2-9.3,13.8-20.5,13.8-33.5V47.3z M468.5,59.1c0,9.7-3.4,18-10.3,24.9l-7-6.8h-16.9l4.6,4.5l1.6,1.6l1.1,1.1c0,0,0,0,0,0l0.8,0.8
		h0l1.7,1.7c0,0,0,0,0,0l0.2,0.2c0,0,0,0,0.1,0l3.9,3.9c-4.8,2.3-9.8,3.5-15.2,3.5h-49.4c-9.7,0-18.1-3.5-25-10.4
		c-6.9-7-10.4-15.3-10.4-25V47.3c0-9.7,3.5-18.1,10.4-25c6.9-6.9,15.3-10.4,25-10.4h49.4c9.7,0,18.1,3.5,25,10.4
		c6.9,6.9,10.4,15.3,10.4,25V59.1z M455.4,48.4c-0.4,0.5-0.1,1.2-0.4,1.7c-0.1,0-0.2,0-0.3,0.1c-0.4-0.2-5.1-3.4-5.4-3.8
		c-0.1-0.1,0-0.4,0.1-0.5c0.3-0.3,0.3-0.3,0.1-2.2c-0.5-0.2-0.6-0.3-0.9-0.4c-0.4,0.2-0.4,0.2-2.1-0.1c-0.1,0.1-0.3,0.2-0.4,0.4
		c-2.2-0.6-4,1.2-6.2,0.6c-0.2,0-0.3,0-0.3,0c-0.6,0.1-0.8,0.1-1.5-0.5c-0.1-0.1-0.1-0.1-0.1-0.1c-0.1,0.1-0.2,0.2-0.3,0.2
		c-0.4,0.4-0.1,0.9-0.5,1.3c-0.5,0.5-1.5,0.5-1.9,1c-0.1,0.1-0.1,0.4-0.1,0.6c-0.2,2-0.2,2-0.9,2.3c-0.7,0.2-1.8,0.9-1.9,1
		c-0.4,0.5-3.3,4.3-3.3,4.3c-0.1,1,0.8,1.9,0.8,2.9c0,0.8-1.6,1.2-1.1,2.2c0.8,1.5,1.8,2.8,2.7,4.2c0.4,0.6,3.2,2.6,3.7,2.6
		c2.7-0.2,5.2-0.9,8-0.7c0.1,0,0.2,0.1,0.2,0.1c0.5,0.3,0.1,0.9,0.6,1.2c0.5,0.3,1.1,0.1,1.6,0.3c0.3,0.8,0.3,0.8-0.1,1.6
		c-0.1,0.2-0.2,0.4-0.3,0.6h9.2l2.2,2.2c0.3-0.5,0.5-1,0.8-1.5c0.1-0.1,0.1-0.3,0.2-0.4c0.2-0.4,0.3-0.8,0.5-1.3
		c0.1-0.2,0.2-0.4,0.2-0.6c0.1-0.3,0.2-0.7,0.3-1c0.1-0.3,0.2-0.6,0.2-0.9c0.1-0.3,0.2-0.6,0.2-1c0-0.2,0.1-0.4,0.1-0.6
		c0.1-0.6,0.2-1.3,0.3-1.9c0-0.2,0-0.4,0.1-0.6c0.1-0.8,0.1-1.6,0.1-2.4v-8.5c-0.1,0-0.3,0.1-0.3,0.1
		C457.3,50.7,457.5,48.5,455.4,48.4z M458.1,42.2c-0.3,0.2-0.8,0.1-1.2,0.2c0,0.1-0.1,0.3-0.1,0.5c0.1,0,0.2,0,0.3,0.1
		c0.1,0.8,0.4,2.4,1.8,3.3c0.1,0,0.2-0.1,0.2-0.2c0-0.1,0-0.2,0-0.2c0.2,0.1,0.3,0.3,0.5,0.4c0-0.7-0.1-1.5-0.1-2.2v0
		c-0.1-0.5-0.1-0.9-0.2-1.4v0c0-0.3-0.1-0.6-0.2-1c0,0,0,0,0,0c0,0,0,0,0,0c0-0.1,0-0.2-0.1-0.3c-0.1,0-0.3,0-0.4,0
		c0,0.1-0.1,0.3-0.2,0.4c-0.2,0-0.4-0.1-0.6-0.1C457.9,41.9,457.9,42.1,458.1,42.2z M458.1,47.1C458.1,47.1,458.1,47.1,458.1,47.1
		C458.1,47.1,458.1,47.1,458.1,47.1l-0.5-0.5c-0.1-0.1-0.2-0.1-0.2-0.1c-0.2,0-0.3,0-0.5-0.1c-0.3-0.1-0.3-0.1-0.3-0.1
		c-0.1,0-0.2,0.1-0.1,0.2C456.6,46.7,457.8,47.2,458.1,47.1z M447.1,40.2c-0.1,0.1-0.1,0.7,0,0.8c0.1,0.1,0.3,0.1,0.4,0.2
		c0,0.2,0,0.3,0,0.4c0,0.1,0.2,0.1,0.2,0.1c0.1,0,0.8-0.1,0.8-0.5c0,0,0-0.1,0-0.1c0-0.2-0.1-0.3-0.1-0.5c0-0.2,0-0.3-0.1-0.5
		c-0.1-0.3-0.2-0.3-0.3-0.3C447.7,39.8,447.2,39.9,447.1,40.2z M447.1,38.7c-0.1,0-0.1,0.1-0.1,0.2c0,0,0.1,0.1,0.1,0.1
		c0,0,0.5,0.4,0.5,0.5c0.1,0,0-0.7-0.1-1c0,0-0.2-0.5-0.2-0.6c0,0,0,0,0,0c0,0,0,0,0,0c0,0,0,0,0,0c-0.1,0.2,0,0.3,0,0.5
		C447.2,38.6,447.1,38.7,447.1,38.7z M444.7,24.1c1,0.7,2.4,0.6,3.4,1.2c-1.6-1.1-3.2-2-4.9-2.7C443.7,23.4,443.9,23.5,444.7,24.1z
		 M439.7,25c0.6-0.2,0.3-0.9,0.1-1.2c0.1,0.1,3.3,2.4,3.8,3.2c0.3,0.3,0.5,0.7,1,0.7c0.1-0.1,0.1-1-0.2-1.5c-0.7-1-0.5-1.1-0.2-1.3
		c0-0.2,0-0.3-0.9-0.8c-0.6-0.3-0.6-0.3-1.5-1.3c-0.1-0.2-0.1-0.4-0.1-0.6c0,0,0,0,0,0h0c-1.6-0.5-3.2-0.9-4.9-1.1
		c-0.1,0.5-0.2,0.5-0.8,0.8c-0.2,0.1-0.2,0.2-0.1,0.5C436.1,22.2,437.9,25.5,439.7,25z M443,40.7c0.1,0.1,0.6,0.2,0.8,0.2
		c0.1,0,0.1,0,0.1,0c0,0,0.3-0.2,0.3-0.2c0-0.1-0.2-0.1-0.5-0.2C443.4,40.5,442.8,40.5,443,40.7z M430.4,24.7
		c0.1,0.2-0.2,0.5-0.1,0.7c0.1,0,0.3,0,0.7-0.2c0.2-0.1,0.3-0.2,0.4-0.1c0.4,0.2-0.1,0.5,0.1,0.8c0.3,0.5,0.7,0.6,1.1,0.7
		c0.7,0.2,0.8,0.2,1,0.2c0,0.1,0,0.2,0,0.3c0.2,0.3,0.6,0.4,0.7,0.7c0.1,0.3-0.4,0.1-0.7,0c-0.1,0-0.1,0-0.2,0h0
		c-0.2-0.1-0.3-0.1-0.4-0.1c0,0,0,0,0,0.1c0.2,0.4,0.7,0.5,0.8,0.9c0.1,0.2-0.2,0.3-0.6,0.4c-0.1,0-0.2,0.1-0.2,0.2
		c0,0,0.2,0.2,1.1,0.2c0.4,0,1.2,0,1.2,0.2c0,0.2-0.2,0.2-0.4,0.2c-0.3,0-0.3,0.1-0.4,0.1c-0.2,0.1-0.2,0.3-0.4,0.5
		c-0.2,0.2-0.5,0.3-0.7,0.5c0,0,0,0,0,0.1c0.1,0,0.1,0,1.8-0.2c0.9-0.1,1.7,0,2.6-0.1h0l1.5-0.4c0,0,0,0,0,0c-0.3-0.2-0.7,0-1-0.1
		c-0.2-0.3,0.2-0.6,0.1-1c-0.3-0.6-0.6-0.6-0.9-0.6c-0.6,0-1-0.6-1-0.6c0,0,0,0,0,0c0,0,0,0,0.5,0.1c0.2,0.1,0.5,0.1,0.5,0
		c0,0,0,0,0,0c0,0-0.1-0.1-0.2-0.2c-0.7-0.4-1.6-0.6-2.2-1.1c-0.3-0.2-0.5-0.5-0.9-0.7c-0.6-0.3-1.2-0.4-1.5-0.4
		c0.4-0.3,0.9-1.5-0.1-1.5c-0.2,0-0.4,0-0.5,0c-0.6,0.1-0.8,0.1-0.8,0c0-0.2,0.5-0.7,0.1-0.7c0,0-1.2,0-1.4,0.3c0,0,0,0.1,0,0.1
		C430.1,24.1,430.4,24.4,430.4,24.7z M429.3,27.8C429.3,27.8,429.2,27.8,429.3,27.8c-0.2,0.4-0.4,1-0.4,1c-0.1,0.2,0,0.4,0.1,0.5
		c0.2,0.2,1.1,0.1,1.8-0.2c0.2-0.1,0.3-0.2,0.5-0.2c0.2-0.1,0.5,0,0.6-0.2c0.1-0.1,0.1-0.3-0.1-0.7c-0.1-0.2-0.2-0.3-0.3-0.4
		c-0.2-0.2-0.2-0.3-0.1-0.5c0.1-0.1,0.1-0.2,0.1-0.4c-0.1-0.2-0.2-0.3-0.4-0.4c-0.1,0-0.2-0.1-0.2-0.1c-0.2-0.1-0.4-0.1-0.7-0.2
		c-0.1,0-0.2-0.1-0.2-0.1c0,0,0,0,0,0c-0.1,0-1.4,0.3-0.6,0.6c0.1,0,0.1,0,0.2,0c0,0-0.1,0-0.1,0.1c-0.6,0.2-0.7,0.3-0.8,0.4
		c-0.1,0.1-0.2,0.2-0.2,0.4c0,0.1,0.1,0.2,0.3,0.2C428.9,27.8,429.1,27.7,429.3,27.8z M413.3,72.8c0-0.1,0.1-0.3,0.1-0.5l-0.6-0.5
		c-0.2,0-0.5,0.1-0.8,0c-1.2-0.2-2-1-3.2-1.3c-1.8-0.4-3.6-0.6-5.3-1c-1-0.3-1.1-1.2-1.8-1.7c-1.1-0.5-1.9-1.4-3-1.9
		c-1.5-0.6-3.3-0.4-4.8-1.1c-1.2-0.5-1.9-1.4-3.2-1.9c-0.2-0.1-0.4-0.1-0.6-0.2c-6-0.7-10.8-1.2-11.3,2.4c-1.8-0.9-6.4,0.6-6-1.7
		c0.3-1.4-0.5-2.3-0.5-2.3c-1.4-0.5-2.8,0-4.2,0c0.5-1.2,0.5-1.2,0.1-1.7c0.6-1.1,0.6-1.1,0.8-2c-0.3-0.2-2.6-1.6-3.1,2.4
		c-0.8,0-1.3,0.8-2.2,0.4c-2.2-0.9-2.9-2.1-3.2-2.8c-0.3-0.8,0.6-1.4,0.5-2.1c0-0.5-0.9-0.7-0.6-1.2c0.3-0.7,2-2,2.4-2.2
		c0.7-0.4,3.5,0.1,3.5,0.1c0.1-0.1,0.2-0.1,0.2-0.2c-0.2-0.2-0.5-0.2-0.8-0.4c0-0.1,0.1-0.2,0.1-0.2c0.5-0.2,4.8-0.5,4.9-0.5
		c1.9,0.8,0.7,2.7,2.5,3.5c2.1-1.7-1.3-3.2-0.9-4.9c0.4-1.8,2.7-2.2,4-3.3c0,0,0,0,0,0c0-0.1-0.1-0.1-0.2-0.2c0-0.1,0-0.1,0-0.2
		c0.1,0,0.2,0,0.2-0.1c0-0.1,0-0.2,0-0.3c-0.1,0-0.2,0-0.3-0.1l0.4-3.2c0,0.5,0,1.9,0,1.9c0.2-0.1,0.2-0.1,0.4-2.2
		c0.2,0.2,0.4,0.4,0.5,0.7c0.4-0.5,0.3-1.1,0.9-1.6c0,0,2.5-1,2.7-1c0.2-1.6,0.2-1.6,1.5-2.5c0.2,0,0.2,0,3.8-1.6
		c0,0.1-0.1,0.1-0.1,0.2c0.2,0,0.5,0.1,0.7,0.1v0.2c-2.1,1.1-2.1,1.1-2.1,1.4c1.4,0,5.8-1.9,5-3.3c-0.6,0.3-0.6,0.8-1,1.2
		c-0.4-0.1-0.8-0.2-1.2-0.2c0.3-0.1,0.6-0.3,0.6-0.3c0,0,0,0,0,0c0,0,0,0,0,0c0,0,0,0-0.1,0c-0.5,0.1-0.9,0-1-0.1
		c-0.3-0.1-0.3-0.2-0.3-0.4c0-0.1,0-0.1,0-0.1c0,0,0,0,0,0c0,0-0.2,0.4,0,0.6c-0.5-0.2-0.6-0.4-0.9-0.9c-0.5-0.1-0.5-0.2-0.8-0.4
		c0.8-0.2,1.3-0.3,1.5-0.9c-0.4-0.3-0.4-0.3-5.8,2.2c3.8-2.9,3.8-2.9,7.6-3.8c0.9,0.5,4.8-1,5.4-1.8c-0.2-0.4-0.2-0.4,0.1-0.9
		c0,0-0.1-0.1-0.2-0.2c-0.3-0.1-0.6-0.1-0.9-0.1c-0.3,0-0.3,0-0.3,0c-0.2,0-0.8,0.1-1.8,0.6c0-0.1-0.1-0.1-0.1-0.2
		c0.3-0.3,0.5-0.4,1.6-0.7h0c0.1,0,0.1-0.1,0.2-0.1c0.1-0.1-0.8-0.7-2-0.5c-0.3,0-0.3,0-0.4,0c-0.1-0.1,0.1-0.3,0-0.5
		c-0.2-0.2-0.7-0.2-0.9-0.4c-0.1-0.1,0-0.2,0.1-0.4c0.3-0.3,0.3-0.3-0.3-1c-1.4-1.8-1.4-1.8-2.1-0.9c-0.1,0.2,0.2,0.3,0,0.5
		c-0.2,0.2-0.5,0-0.8,0.2c-0.4,0.5-0.4,0.5-0.5,0.5c-0.8,0.2-1.3-0.3-1.9-0.4c-0.1-0.1,0.1-1.2,0.5-1.4c-0.4-0.1-0.8,0-1.2,0
		c-0.1,0-0.1-0.1-0.3-0.2c-0.1-0.1-0.1-0.2-1.1-0.4c-0.2,0-0.2,0-0.4,0c-0.9,0.2-1.8,0-2.6,0.3c0.2,0.6-0.8,1.1-0.2,1.8
		c-0.1,0.3-0.6,0.4-0.7,0.7c0,0.4,0.5,0.6,0.5,1c0,0,0.1,1.6-1.1,1.8c-0.3,0-0.8,0.2-0.7,0.5c-0.1,0-0.1,0.1-0.3,0.2
		c-0.3,0.9,0.5,2-0.9,2.7c-0.4-0.5-1.2-0.6-1.8-0.9c0.3-0.7,0.2-1,0-1.3c0.1-0.1,0.2-0.1,0.3-0.2c0,0,0-0.1,0-0.2
		c-0.1,0-0.2,0-0.3,0c-0.6-0.4-1.2,0-1.8-0.2c-0.6-0.1-0.9-0.6-1.5-0.7c-0.1,0-0.2-0.1-0.3-0.1c-0.6-0.1-0.9,0.2-1.4,0.3
		c-0.2-0.1-0.2-0.1-0.4-1c-0.1-0.3-0.1-0.3-1.1-0.4c0-0.2,0-0.4,0.2-0.6l0.2-0.4c-0.4,0.3-0.8,0.7-1.2,1c0,0,0,0,0,0
		c-0.4,0.4-0.8,0.8-1.2,1.2c0,0,0,0,0,0c-0.4,0.5-0.9,0.9-1.3,1.4c-0.2,0.2-0.3,0.4-0.5,0.5c-0.2,0.3-0.5,0.6-0.7,0.9
		c-0.2,0.2-0.3,0.4-0.5,0.6c-0.2,0.3-0.4,0.6-0.6,0.9c-0.1,0.2-0.3,0.4-0.4,0.6c-0.2,0.3-0.4,0.7-0.6,1c-0.1,0.2-0.2,0.3-0.3,0.5
		c-0.3,0.5-0.5,1-0.8,1.6c-0.1,0.1-0.1,0.2-0.1,0.4c-0.2,0.4-0.4,0.8-0.5,1.3c-0.1,0.2-0.1,0.4-0.2,0.6c-0.1,0.3-0.2,0.7-0.3,1
		c-0.1,0.3-0.2,0.6-0.2,0.9c-0.1,0.3-0.2,0.6-0.2,1c0,0.2-0.1,0.4-0.1,0.6c-0.1,0.6-0.2,1.3-0.3,1.9c0,0.2-0.1,0.4-0.1,0.6
		c-0.1,0.8-0.1,1.6-0.1,2.4v11.9c0,0.4,0,0.9,0.1,1.3c0.1,0.1,0.3,0.1,0.4,0.2c0.3,0.1,0.6,0.2,0.9,0.3c0.9,0.2,1.9,0.3,2.9,0.5
		c1,0.2,2-0.2,2.9,0.2c2.2,0.9,2.2,0.9,3,1c0.1,0,0.3,0,0.4,0c3.4,0.4,4.9,3.5,8.6,3.5c1.7-2.1,2.7,0.4,3.1,1.6
		c0.1,0.4,0.1,0.4-0.8,1.9c0,0-0.9,2.8-0.5,3.4c0.1,0.1,0.1,0.2,0.2,0.3c1.2,1.4,6.3,5.1,6.4,5.2c1.2,0.8,2.9,1,4.2,1.7
		c1,0.5,1.8,1.6,2.1,3c0,0,0.4,1.2,1,2.8h12.5c0.3-0.6,0.5-1.2,0.6-1.6c0.1-0.5,0.2-0.7,0.2-0.8c0.4-0.7,1.5-1,1.9-1.2
		c1-0.3,1-1.2,1.7-1.7c0.3-0.2,0.6-0.2,0.8-0.2c0.4,0,0.5,0,0.5-0.3c0.1-0.6,0-1.3,0.1-1.9c0-0.4-0.3-0.7,0.1-1.1
		c0.4-0.4,0.5-0.5,0.2-0.8c-0.1,0-0.1-0.1-0.1-0.2c2.4-0.6,3.2-2.6,3.2-2.6c0,0,0,0,0-0.1C413.6,73.1,413.4,73,413.3,72.8z
		 M399.9,22.6c3.4,0.5,3.5,0.4,3.7,0.2c0.2-0.2,0.6-1.4,0.8-2.1h-6.9C398.3,21.5,399.2,22.4,399.9,22.6z M391.3,32.5
		c-0.3,0.3-0.7,0.5-0.9,0.7c-0.1,0.1,0,0.1,0,0.1c0.1,0,0.1,0,1.7,0.1c0.9,0.1,1.6,0.1,2.3,0.3c0.1,0,0.2,0,0.3,0
		c0.3,0,0.5-0.2,0.8,0c0.1,0.1,0.2,0.3,0.2,0.4c0,0.1,0.1,0.1,0.1,0.1c0.2,0,0.6-0.4,0.6-0.7c0.1-0.5-0.5-1.3-1-1.7
		c-0.3-0.2-0.3-0.2-1.2-0.1c-0.3,0-0.3,0-0.4-0.2c-0.1-0.3-0.2-0.4-0.4-0.5c-0.1,0-0.1-0.1,0-0.1c0.1-0.1,0.2-0.2,0.3-0.3
		c0.4-0.4,0.6-0.6,0.5-0.8c0,0,0,0-0.1,0c-0.2,0-0.8,0.4-1.2,0.8C392.2,31.4,391.9,32,391.3,32.5z M386.8,32.1
		c-0.4,0.1,0.4,0.4,0.6,0.5c1,0.4,1.4,0,1.4,0C388.9,32.3,387.2,32.1,386.8,32.1z M381.2,21.6c0.9-0.2,0.9-0.2,2.6,0.3
		c-0.1,0.1-0.1,0.1-0.8,0.3c0.4,0.2,3.2,0.7,3.8,0.4c0,0,0,0-0.2-0.1c-0.1,0-0.1,0-1.3-0.9c1,0.1,1.3,0.2,1.8,0.5
		c0.1,0.1,0.2,0.1,0.2,0.1c0.3-0.1,0.8-1,0.6-1.2c-0.2-0.2-0.5-0.2-0.8-0.4h-3.5c-0.2,0-0.3,0-0.4,0c-0.3,0-0.5,0-0.8,0
		c-0.2,0.1-0.4,0.1-0.6,0.2c-0.7,0.2-1.5,0.1-2.1,0.4c-0.3,0.1-0.3,0.5-0.2,0.5C379.6,21.9,380,22,381.2,21.6z M382.2,20.7
		c0.1,0,0.1,0,0.2,0c0,0,0,0,0,0C382.4,20.7,382.3,20.7,382.2,20.7z M384,60.5c-0.3,0.2,0.1,0.5,0.5,0.5c0.3,0,1.2-0.1,1.2-0.1
		c0,0,0-0.1-0.7-0.3C384.3,60.5,384.1,60.5,384,60.5z M378.7,60.3c0.2,0.1,0.1,0.4,0.4,0.4c0.6,0,0.5-0.5,1-0.6c0.1,0,0.1,0,0.3,0
		c0.8,0.1,2.3,0.1,2.3,0.1c0.1,0,0.1,0,0.1-0.1c0-0.2-0.2-0.3-0.1-0.5c0.2-0.6-3.8-0.9-4.1-0.8c-0.1,0-0.1,0-0.1,0c0,0,0,0,0,0.1
		c0.6,0.4,0.4,0.9,0.4,0.9c-0.1,0.1-0.4,0-0.8,0c-0.8-0.1-0.9-0.1-0.9-0.1c0,0,0,0,0,0C377.6,60.1,378.2,60.1,378.7,60.3z M377.4,24
		c0.2,0.1,0.8-0.4,0.8-0.5c0.1-0.1-0.1-0.1-0.2-0.1c0,0-0.5,0.1-0.6,0.2C377.2,23.8,377.3,24,377.4,24z M374.4,23.2
		c0,0.2,0,0.2,0.1,0.2c0,0,0.2-0.1,0.4-0.2c0.3-0.2,0.8-0.5,1.4-0.6c0.4,0,0.8,0.1,1.2,0c0,0,0.1,0,0.1-0.1c0.1-0.1,0-0.2-0.1-0.3
		c-0.1-0.1-0.2-0.1-0.3-0.2c-0.2-0.1-0.3-0.3-0.5-0.4c0,0,0,0-0.1,0c-0.1,0-0.1,0-0.2-0.1l-0.4,0.1c0,0,0,0,0,0h0
		c-0.1,0-0.2,0.1-0.3,0.1c-0.2,0.1-0.4,0.1-0.6,0.2c-0.1,0-0.2,0.1-0.4,0.1c0,0-0.1,0.1-0.1,0.1l-0.7,0.8
		C374.3,23.1,374.3,23.1,374.4,23.2z M375.2,58.3c0.4,0.3,2.5,0.5,2.6,0.3c0-0.1-2.8-2.5-2.8-2.5c-0.3-0.1-1.1-0.6-2.7-0.3
		c-0.9,0.2-1.5,0.7-1.5,0.7c0.1,0.1,0.8,0,1.4-0.2c0.8-0.3,1.3-0.2,1.4,0c0,0.1-0.1,0.1-0.4,0c0,0,0,0,0,0c0,0.3,0.7,0.4,1.1,0.5
		c0.8,0.1,0.8,0.3,1,0.6c0.1,0.2,0.1,0.3,0.3,0.5c0.1,0.1,0.2,0.2,0.2,0.2C375.6,58.2,375.4,58.2,375.2,58.3z M376.4,23.2
		c0,0-0.9,0.1-1.2,0.3c-0.2,0.1-0.2,0.4-0.1,0.4c0.2,0.1,1.3-0.4,1.5-0.6C376.6,23.3,376.6,23.2,376.4,23.2z M374.1,59.4
		c-0.3,0.1-0.1,0.5,0.1,0.5c0.1,0,1,0.2,1-0.1C375.2,59.6,374.6,59.3,374.1,59.4z M357.1,61.2c0-0.3,0-0.5,0-0.8c0,0,0,0,0,0
		C357.1,60.7,357.1,61,357.1,61.2z M788,0v102.5L685.7,0h-24.8v106.4h11.9V4L722,53.2l53.2,53.2H800V0H788z M120.4,0
		c-8.7,0-16.3,2.9-22.7,8.7L0,106.4h16.9l88.9-88.9c4.1-3.8,9-5.6,14.6-5.6h11.7v94.6h11.9V0H120.4z M313.4,61.7
		c5.2-6.8,7.8-14.5,7.8-23.2c0-10.6-3.8-19.7-11.2-27.2C302.4,3.8,293.4,0,282.9,0H168.4v106.4h11.9V76.8h97.4l26.8,29.6h16.7
		l-28-31C301.4,73.1,308.1,68.5,313.4,61.7z M180.3,64.9V11.8h102.6c7.3,0,13.5,2.6,18.7,7.8c5.2,5.2,7.8,11.4,7.8,18.8
		c0,7.3-2.6,13.6-7.8,18.8c-5.2,5.2-11.4,7.8-18.7,7.8H180.3z M458.6,39.5c0-0.1-0.1-0.2-0.1-0.3c0,0-0.1,0.1-0.2,0.1
		c-0.2-0.3-0.4-0.6-0.7-0.8c0.1-0.4,0.1-0.4,0-0.7c-0.3-0.2-0.4-0.2-0.7-0.4c0-0.1,0.1-0.2,0.1-0.2c-0.2-0.1-0.4-0.1-0.6,0
		c-0.3,1.7,1.3,3.1,1,4.7c-0.1,0-0.2,0-0.3,0c-0.1,0.1-0.2,0.3-0.3,0.4c-0.2-0.5-1.1-0.9-1.5-1c-0.2,0.1-0.2,0.1,0.2,2
		c0.1,0.5,0.4,1.1,0.4,1.7c0,0.1,0,0.3-0.1,0.5l-1.4-2.5c-1.3-2.9-1.3-2.9-1.3-2.9l-4.5-3.9c-0.2,0.1-0.4,0.2-0.4,0.3
		c2,3,2.6,3.2,3.3,3.5c0,0.1-0.1,0.2-0.1,0.2c1.6,1.4,1.6,1.4,1.7,1.8c-0.1-0.1-0.3-0.3-0.4-0.4c-0.1,0-0.2,0-0.3,0.1
		c0,0.3,0,0.3,0.3,1c-0.2,0.3-0.3,0.6-0.6,0.9c-0.1,0-0.2,0-0.3,0c-0.1,0.4,0.2,0.8,0.1,1.2c0,0-1.2-0.8-1.6-1.3
		c2-0.2,2.1-0.2,1.8-1.1c-0.5-1.1-5.1-5.1-5.1-5.2c-0.9-0.5-1.3-0.1-1.8,0.6c-0.6,0-1.1-0.6-1.7-0.2c-0.1,0.1-0.1,0.1-0.2,1.4
		c-1.4,0.4-1.4,0.4-1.9,2.1c0.5,0.6,0.2,1.5-0.7,1.6l-3.3,0.8c0,0,0,0-0.2-0.7c-0.6-0.1-0.9-0.1-2.3,0c0-0.1,0-0.1,0.2-1.4
		c-0.7-0.1-0.9-4.2-0.9-4.3c-0.1-0.1-0.3-0.3-0.4-0.4c0.7,0.1,1.5,0.2,2.2,0.3h0l1.8-0.4l1.1,0.2l0.9-0.2c0-0.3-0.1-0.7-0.3-1.1
		l-0.7-0.7c0,0-0.3-0.4-0.5-0.7c-0.5-0.4-1.2-0.7-2.2-0.9c0.1,0,0.2-0.1,0.3-0.1c-0.2-0.1-0.4-0.3-0.6-0.4c0-0.1,0.1-0.1,0.1-0.2
		c0.7,0,0.7,0,1.2,0.2c0.2,0,0.4-0.1,0.6-0.2c0-0.1,0.1-0.2,0.1-0.2c-0.1-0.1-0.3-0.3-0.4-0.4c0.4,0.2,0.6,0.3,1.5,0.3
		c0.1-0.1,0.1-0.3,0.2-0.5c0.2,0,0.5-0.2,0.7-0.2c-0.4-0.6-0.4-0.6-0.4-0.7c0.5-0.1,0.5-0.1,1.3-0.1c0.1-0.1,0.1-0.1,0.2-0.2
		c-0.3-0.7-0.4-1.1-0.5-1.2c0.3-0.2,0.3-0.2,1.2-0.2c0,0,0.1-0.1,0.2-0.2c0.2,0,0.4,0,0.6-0.1c0.2-0.1,0.3-0.1,0.3-0.1
		c0,0,0-0.1-0.4-0.4c-0.8-0.8-2.1-2.3-2.1-2.5c-0.2-0.3,0.8-0.3,0.8-0.3c0.3,0,0.8,1,0.8,1.2c0,0.5,0.5,1.2,1.1,1.6
		c0.7,0.6,0.7,0.6,1,0.6c0.7,0,1.1,0.2,1.3,0.3l-0.9-0.1c0.5,0.1,1,0.2,1.4,0.3c0.1,0,0.2-0.1,0.3-0.1c0-0.1,0-0.1,1.9,0
		c0,0,0,0-0.1-0.1c0.1-0.1,0.1-0.2,0.1-0.3c0.1,0,0.1,0,0.5,0c0-0.2-0.5-0.7-0.6-0.8c-0.1-0.1-0.9-1.2-0.9-1.2c0,0,0.1,0,0.1-0.1
		c0.7-0.1,0.8,0.7,1.4,0.7c-0.5-0.8-1.4-1.3-2.1-2c0.6,0.1,1.2,0.2,1.7,0.4c-0.1-0.1-0.2-0.1-0.2-0.2c0,0,0.1,0,0.1,0
		c0.2,0,0.3,0.1,0.4,0.1c1.3,0.9,2.5,2,3.7,3.1C455.1,31.8,457.3,35.4,458.6,39.5z"/>
</g>
</svg>
